<svg width="30" height="30" viewBox="0 0 30 30" fill="none" xmlns="http://www.w3.org/2000/svg">
<rect x="0.648438" y="0.578674" width="28.8427" height="28.8427" rx="2.38764" fill="#4786FF"/>
<path d="M12.5925 8.03015C16.4897 8.91126 18.5859 11.5743 18.571 15.5407C18.5628 17.717 18.5695 19.8933 18.5695 22.1076C17.6336 22.1076 16.7508 22.1076 15.7748 22.1076C15.7748 21.576 15.7748 21.0485 15.7748 20.521C15.7746 18.6682 15.7937 16.8151 15.7693 14.9626C15.7415 12.8554 14.1216 11.0369 12.1052 10.7996C9.85333 10.5347 7.88508 11.8237 7.32787 13.9284C6.76986 16.0361 7.80824 18.1585 9.81616 19.0036C10.0239 19.091 10.2445 19.1478 10.5332 19.2432C10.5332 17.8202 10.5332 16.4735 10.5332 15.0862C11.3743 15.0862 12.1584 15.0862 12.978 15.0862C12.978 17.4114 12.978 19.7269 12.9779 22.0426C8.75126 22.7356 5.41178 20.2124 4.55995 16.6104C3.67074 12.8504 6.09552 8.96487 9.87793 8.15741C10.7329 7.97488 11.6449 8.05912 12.5925 8.03015Z" fill="white"/>
<path d="M25.6647 20.9334C25.6647 21.3494 25.6647 21.6982 25.6647 22.0979C24.7365 22.0979 23.8388 22.0979 22.8626 22.0979C22.8626 21.6194 22.8615 21.1577 22.8628 20.6961C22.8682 18.7735 22.8772 16.851 22.8794 14.9284C22.8828 11.9687 20.8883 9.25859 18.0057 8.29883C17.8336 8.24153 17.6612 8.18494 17.4375 8.111C20.8719 7.27382 24.6678 9.79638 25.4861 13.4266C25.6086 13.97 25.6562 14.5398 25.6618 15.0982C25.6811 17.0207 25.6664 18.9434 25.6647 20.9334Z" fill="white"/>
</svg>
